<svg xmlns="http://www.w3.org/2000/svg" xmlns:xlink="http://www.w3.org/1999/xlink" xml:space="preserve" style="shape-rendering:geometricPrecision;text-rendering:geometricPrecision;image-rendering:optimizeQuality;" viewBox="0 0 6.82666 8.533325000000001" x="0px" y="0px" fill-rule="evenodd" clip-rule="evenodd"><defs><style type="text/css">
   
    .fil1 {fill:none}
    .fil0 {fill:black;fill-rule:nonzero}
   
  </style></defs><g><g><path class="fil0" d="M0.933339 4.68967c-0.0441811,0 -0.08,0.0358189 -0.08,0.08 0,0.0441811 0.0358189,0.08 0.08,0.08l1.70404 0c0.0316417,0 0.0589882,-0.018374 0.0719685,-0.0450315l0.54002 -0.935339c0.0220906,-0.0381417 0.00907874,-0.0869724 -0.029063,-0.109063 -0.0381417,-0.0220906 -0.0869724,-0.00907874 -0.109063,0.029063l-0.519831 0.90037 -1.65807 0zm2.65577 -1.72776c-0.0219173,0.0381417 -0.00876772,0.0868346 0.029374,0.108752 0.0381417,0.0219173 0.0868346,0.00876772 0.108752,-0.029374l0.520665 -0.901823 1.64542 0c0.0441811,0 0.08,-0.0358189 0.08,-0.08 0,-0.0441811 -0.0358189,-0.08 -0.08,-0.08l-1.68989 0c-0.0280827,-0.000437008 -0.055563,0.0139488 -0.0706024,0.04l0.000220472 0.000311024 -0.543937 0.942134z"/><path class="fil0" d="M5.1666 1.40994c-0.0352087,-0.0265787 -0.0852992,-0.0195827 -0.111878,0.015626 -0.0265787,0.0352087 -0.0195827,0.0852992 0.015626,0.111878l0.690531 0.522008 -0.690531 0.522004c-0.0352087,0.0265787 -0.0422047,0.0766693 -0.015626,0.111878 0.0265787,0.0352087 0.0766693,0.0422047 0.111878,0.015626l0.773508 -0.584728c0.00318504,-0.00229921 0.00622441,-0.0048622 0.00909055,-0.00766929l0.00125197 -0.00125197c0.00581496,-0.00592913 0.0105512,-0.0126142 0.0141654,-0.0197677l0.000787402 -0.00159843 0.000425197 -0.000909449 0.000287402 -0.000622047 0.000598425 -0.00135827 0.000161417 -0.00038189c0.00379921,-0.00892913 0.00586614,-0.0183307 0.00626772,-0.027752l7.87402e-006 -0.000125984 5.11811e-005 -0.00170866 3.93701e-006 -0.000370079 1.1811e-005 -0.00126378 -1.1811e-005 -0.00126378 -3.93701e-006 -0.000370079 -5.11811e-005 -0.00170866 -7.87402e-006 -0.000125984c-0.000401575,-0.0094252 -0.0024685,-0.0188228 -0.00626772,-0.027752l-0.000161417 -0.00038189 -0.000598425 -0.00135827 -0.000287402 -0.000622047 -0.000425197 -0.000909449 -0.000787402 -0.00159843c-0.00361811,-0.00714961 -0.00835039,-0.0138346 -0.0141654,-0.0197677l-0.00125197 -0.00125197c-0.00286614,-0.00280709 -0.00590551,-0.00537008 -0.00909055,-0.00766929l0.00135827 0.00102756 -0.048126 0.063752 0.048126 0.063752 -0.00135827 0.00102756c-0.0276732,0.0199961 -0.0662205,0.0206181 -0.0948937,-0.00102756l0.048126 -0.063752 -0.048126 -0.063752c0.0286732,-0.0216457 0.0672165,-0.0210236 0.0948937,-0.00102756l-0.773508 -0.584732z"/><path class="fil0" d="M0.933339 1.97699c-0.0441811,0 -0.08,0.0358189 -0.08,0.08 0,0.0441811 0.0358189,0.08 0.08,0.08l1.65825 0 1.54146 2.6699 -0.000220472 0.000311024c0.0150394,0.0260512 0.0425197,0.040437 0.0706024,0.04l1.68989 0c0.0441811,0 0.08,-0.0358189 0.08,-0.08 0,-0.0441811 -0.0358189,-0.08 -0.08,-0.08l-1.64542 0 -1.53775 -2.66347c-0.012626,-0.0275787 -0.0404646,-0.0467402 -0.0727756,-0.0467402l-1.70404 0z"/><path class="fil0" d="M5.07035 5.28921c-0.0352087,0.0265787 -0.0422047,0.0766693 -0.015626,0.111878 0.0265787,0.0352087 0.0766693,0.0422047 0.111878,0.015626l0.773508 -0.584732c0.00318504,-0.00229921 0.00622441,-0.0048622 0.00909055,-0.00766929l0.00125197 -0.00125197c0.00581496,-0.00592913 0.0105512,-0.0126142 0.0141654,-0.0197677l0.000787402 -0.00159843 0.000425197 -0.000909449 0.000287402 -0.000622047 0.000598425 -0.00135827 0.000161417 -0.00038189c0.00379921,-0.00892913 0.00586614,-0.0183307 0.00626772,-0.027752l7.87402e-006 -0.000125984 5.11811e-005 -0.00170866 3.93701e-006 -0.000370079 1.1811e-005 -0.00126378 -1.1811e-005 -0.00126378 -3.93701e-006 -0.000370079 -5.11811e-005 -0.00170866 -7.87402e-006 -0.000125984c-0.000401575,-0.0094252 -0.0024685,-0.0188228 -0.00626772,-0.027752l-0.000161417 -0.00038189 -0.000598425 -0.00135827 -0.000287402 -0.000622047 -0.000425197 -0.000909449 -0.000787402 -0.00159843c-0.00361811,-0.00714961 -0.00835039,-0.0138346 -0.0141654,-0.0197677l-0.00125197 -0.00125197c-0.00286614,-0.00280709 -0.00590551,-0.00537008 -0.00909055,-0.00766929l0.00135827 0.00102756 -0.048126 0.063752 0.048126 0.063752 -0.00135827 0.00102756c-0.0276772,0.0199961 -0.0662205,0.0206181 -0.0948937,-0.00102756l0.048126 -0.063752 -0.048126 -0.063752c0.0286732,-0.0216457 0.0672205,-0.0210236 0.0948937,-0.00102756l-0.773508 -0.584728c-0.0352087,-0.0265787 -0.0852992,-0.0195827 -0.111878,0.015626 -0.0265787,0.0352087 -0.0195827,0.0852992 0.015626,0.111878l0.690531 0.522004 -0.690531 0.522008z"/></g></g><rect class="fil1" width="6.82666" height="6.82666"/></svg>