<!DOCTYPE svg PUBLIC "-//W3C//DTD SVG 1.1//EN" "http://www.w3.org/Graphics/SVG/1.1/DTD/svg11.dtd">
<!-- Uploaded to: SVG Repo, www.svgrepo.com, Transformed by: SVG Repo Mixer Tools -->
<svg width="800px" height="800px" viewBox="0 0 16 16" xmlns="http://www.w3.org/2000/svg" fill="#000000" class="bi bi-skip-forward-fill" transform="rotate(180)">
<g id="SVGRepo_bgCarrier" stroke-width="0"/>
<g id="SVGRepo_tracerCarrier" stroke-linecap="round" stroke-linejoin="round"/>
<g id="SVGRepo_iconCarrier"> <path d="M15.5 3.5a.5.5 0 0 1 .5.5v8a.5.5 0 0 1-1 0V8.753l-6.267 3.636c-.54.313-1.233-.066-1.233-.697v-2.94l-6.267 3.636C.693 12.703 0 12.324 0 11.693V4.308c0-.63.693-1.01 1.233-.696L7.5 7.248v-2.94c0-.63.693-1.01 1.233-.696L15 7.248V4a.5.5 0 0 1 .5-.5z"/> </g>
</svg>